<svg x="0px" y="0px" width="152.7px" height="28px" viewBox="0 0 152.7 28">
        <rect
          id="rect9_1_"
          x="0"
          y="20.3"
          className="logo-line-green"
          width="131.8"
          height="7.7"
        />
        <rect
          id="rect11_1_"
          x="131.8"
          y="20.3"
          className="logo-line-red"
          width="21"
          height="7.7"
        />
        <g>
          <path
            id="path13_1_"
            className="logo-type-grey "
            d="M81.3,16.3c-2.6,0-5.1-1-6.2-1.7l1.8-3.1c1,0.6,2.9,1.5,4.6,1.5c1,0,2.3-0.2,2.3-1.3
     c0-1.1-1.4-1.3-3.3-1.9c-2.1-0.7-4.6-1.7-4.6-4.6c0-3.2,2.9-5.1,6.6-5.1c2.5,0,4.4,0.8,5.4,1.8l-2.1,2.5c-1.1-0.6-2.1-1.2-3.3-1.2
     c-1.4,0-2.3,0.6-2.3,1.4s1.1,1.2,2.4,1.7c2.4,0.7,5.6,1.4,5.6,4.6S85.4,16.3,81.3,16.3 M66.1,3.5c-2.1,0-3.6,1.5-3.6,4.8
     c0,3.3,1.5,4.8,3.6,4.8c1.8,0,3.2-1.5,3.2-4.8C69.5,5,67.9,3.5,66.1,3.5L66.1,3.5z M66.1,16.3c-5.1,0-7.7-3.6-7.7-8.1
     c0-4.4,2.7-8.1,7.7-8.1c4.8,0,7.5,3.6,7.5,8.1S70.9,16.3,66.1,16.3L66.1,16.3z M50.4,3.5h-2v3.9h1.9c1.2,0,2.1-0.6,2.1-2.1
     C52.4,3.8,51.6,3.5,50.4,3.5C50.4,3.5,50.4,3.5,50.4,3.5z M53.4,16l-1.8-4.3c-0.4-0.8-0.6-1.3-1.4-1.3h-1.8V16h-3.9V1.1
     c0-0.4,0.4-0.6,0.6-0.6h5.5c3,0,5.6,0.6,5.6,4.5c0,1.8-1,3.5-2.7,3.8c1,0.4,1.8,1.4,2.3,2.7l1.8,4.5h-4.1V16z M35.9,7h5
     c0.4,0,0.6,0.4,0.6,0.7v8c-1.4,0.4-3.7,0.5-5.2,0.5c-5.8,0-8.8-2.7-8.8-8.1c0-4.8,3.1-8.1,8.1-8.1c2.3,0,4.2,0.6,5.5,1.4l-1.5,2.6
     c-1.1-0.5-2.6-0.8-3.6-0.8c-3,0-4.3,1.9-4.3,4.8c0,3,1.5,4.9,4.5,4.9c0.6,0,1.2,0,1.8-0.1V10H36V7H35.9z M20.7,16V0.5h3.5
     c0.4,0,0.6,0.4,0.6,0.6V16H20.7C20.7,16,20.7,16,20.7,16z M13.7,16V7L9.9,16H7.7L3.9,7V16H0V0.5h5.4l3.7,8.8l3.8-8.8h4.9v15.6h-4.1
     "
          />
          <path
            id="path15_1_"
            className="logo-type-black "
            d="M138.8,1.1c0-0.4,0.4-0.6,0.7-0.6h3.3v6.7l5.1-6.7h4.5l-5.8,7.3l6.1,8.3H148l-5.1-7.1v7.1h-4.1
     L138.8,1.1"
          />
          <path
            id="path17_1_"
            className="logo-type-black "
            d="M125.2,6.2V16h-3.9V0.5h4.3c0,0,5.4,8,6.2,9.7V0.5h3.9v15.6h-3.9L125.2,6.2"
          />
          <path
            id="path19_1_"
            className="logo-type-black "
            d="M113.8,10.4h-4.1l1.9-6.9h0.2L113.8,10.4C113.8,10.4,113.8,10.4,113.8,10.4z M114.5,13.3
     l0.7,2.6h4.2l-4.6-15.6h-5.1c-0.5,0-0.7,0.4-0.7,0.5l-4.6,15h4.2l0.7-2.6h5.4"
          />
          <path
            id="path21_1_"
            className="logo-type-black "
            d="M96.9,3.3h-2.3v3.5h2.1c1.5,0,2.3-0.5,2.3-1.7C99,3.8,98.3,3.3,96.9,3.3L96.9,3.3z M99.6,11.3
     c0-1.3-0.7-1.9-2.4-1.9h-2.6v3.8H97C98.7,13.2,99.6,12.6,99.6,11.3L99.6,11.3z M103.4,11.7c0,3.1-2.6,4.3-6.2,4.3h-6.3V1.2
     c0-0.4,0.4-0.7,0.7-0.7h5.6c2.9,0,5.5,1,5.5,3.8c0,1.9-0.7,3.2-2.3,3.6C102.1,8.2,103.4,9.5,103.4,11.7"
          />
        </g>
      </svg>