<svg id="katman_1" data-name="katman 1" width="40" height="40" xmlns="http://www.w3.org/2000/svg" viewBox="0 0 180 160"><defs><style>.cls-1{fill:#1d428a;}.cls-2{fill:#fff;}</style></defs><path class="cls-2" d="M64,97.93l-.14,1.45a4.9,4.9,0,0,0-.82-.27A2.66,2.66,0,0,0,62.6,99a2.43,2.43,0,0,0-.38,0,1.67,1.67,0,0,0-.88.19.53.53,0,0,0-.32.49.51.51,0,0,0,.16.38,1.13,1.13,0,0,0,.49.28l.31.1a6.09,6.09,0,0,1,1.6.69,1.76,1.76,0,0,1,.54.65,2,2,0,0,1,.18.87,2.14,2.14,0,0,1-.77,1.77,3.54,3.54,0,0,1-2.24.61,7.61,7.61,0,0,1-1-.07,8,8,0,0,1-1.06-.22l.16-1.57a5,5,0,0,0,1,.34,3.12,3.12,0,0,0,.44.09l.44,0a1.6,1.6,0,0,0,.87-.21.64.64,0,0,0,.32-.57c0-.29-.34-.55-1-.79l-.38-.14a3.39,3.39,0,0,1-1.43-.83,1.76,1.76,0,0,1-.43-1.23,1.93,1.93,0,0,1,.75-1.62A3.57,3.57,0,0,1,62,97.68a7.91,7.91,0,0,1,1,.06l.46.08a4.35,4.35,0,0,1,.46.11m4.78,1.34h1.74v5.61h1.87V99.27h1.74V97.86H68.73Zm13.57,2.79H80.51l.91-2.63Zm-4.64,2.82h1.85l.53-1.49h2.7l.5,1.49h2l-2.66-7H80.32Zm11.92,0h1.69v-3.71c0-.12,0-.27,0-.44s0-.33,0-.48,0-.45-.06-.6,0-.34-.08-.56c.08.31.16.56.23.78a5.8,5.8,0,0,0,.27.65l2.11,4.36H96v-7H94.33v4c0,.22,0,.48,0,.78s.07.62.13,1c-.06-.17-.11-.34-.17-.51s-.12-.37-.14-.42a4.57,4.57,0,0,0-.24-.59l-2-4.21H89.58ZM104,101.94a1.38,1.38,0,0,1,.81.2.72.72,0,0,1,.27.61.71.71,0,0,1-.3.62,1.51,1.51,0,0,1-.87.22h-.73v-1.65Zm-.16-2.82a1.47,1.47,0,0,1,.81.19.64.64,0,0,1,.28.57.68.68,0,0,1-.3.61,1.51,1.51,0,0,1-.88.2h-.57V99.12Zm-2.49,5.76H104a3.93,3.93,0,0,0,2.18-.48,1.62,1.62,0,0,0,.7-1.46,1.59,1.59,0,0,0-.39-1.1,1.91,1.91,0,0,0-1.1-.57,1.88,1.88,0,0,0,1-.58,1.49,1.49,0,0,0,.34-1,1.55,1.55,0,0,0-.64-1.36,3.28,3.28,0,0,0-1.92-.46H101.3ZM111.92,102a3.2,3.2,0,0,0,.76,2.31,3.64,3.64,0,0,0,4.49,0,3.25,3.25,0,0,0,.74-2.32V97.86h-1.78V102a2.11,2.11,0,0,1-.31,1.26,1,1,0,0,1-.9.44,1,1,0,0,1-.86-.41,2.4,2.4,0,0,1-.26-1.29V97.86h-1.88Zm11.27,2.93h4.69v-1.39h-2.82V97.86h-1.87ZM52.12,97.24H54V96.3H52.12Zm0,7.64H54v-7H52.12ZM43.19,117.4a2.65,2.65,0,0,1,.66,1.84,2.79,2.79,0,0,1-1.18,2.46,6.66,6.66,0,0,1-3.65.79H34.45V110.74h4.81a5.49,5.49,0,0,1,3.2.77,2.61,2.61,0,0,1,1.08,2.28,2.5,2.5,0,0,1-.56,1.69,3.14,3.14,0,0,1-1.64,1,3.19,3.19,0,0,1,1.85,1m-5.67-1.92h.95a2.68,2.68,0,0,0,1.48-.33,1.15,1.15,0,0,0,.49-1,1.07,1.07,0,0,0-.46-.95,2.42,2.42,0,0,0-1.36-.32h-1.1Zm3.18,3.44a1.18,1.18,0,0,0-.46-1,2.2,2.2,0,0,0-1.35-.34H37.52v2.76h1.23A2.48,2.48,0,0,0,40.2,120a1.22,1.22,0,0,0,.5-1m22.5-3.21-2.35-5H57.3l4.22,7.39v4.36h3.13v-4.4l4.26-7.35H65.54Zm14,1.87a3.66,3.66,0,0,1-.52,2.12,1.74,1.74,0,0,1-1.52.73,1.6,1.6,0,0,1-1.43-.68,4,4,0,0,1-.45-2.17v-6.84H70.17v6.84a5.33,5.33,0,0,0,1.27,3.88,5,5,0,0,0,3.74,1.3A5,5,0,0,0,79,121.47a5.4,5.4,0,0,0,1.25-3.89v-6.84h-3Zm1.46-9.45h-3v1.57h3Zm-4,0h-3v1.57h3Zm-24.15,0h-3v1.57h3Zm2.55,9.45a3.59,3.59,0,0,1-.52,2.12,1.71,1.71,0,0,1-1.51.73,1.59,1.59,0,0,1-1.43-.68,4,4,0,0,1-.45-2.17v-6.84H46v6.84a5.38,5.38,0,0,0,1.26,3.88,5,5,0,0,0,3.75,1.3,5,5,0,0,0,3.76-1.29A5.35,5.35,0,0,0,56,117.58v-6.84h-3Zm1.47-9.45h-3v1.57h3Zm38.85,2.61H89.87l-3.63,5.08v-5.08H83.1v11.75h3.14V117l3.69,5.45h3.89l-4.76-6.35Zm15.51,6.81h4.74v-2.24h-4.74v-2.37h5v-2.2h-8.16v11.75h8.35v-2.27h-5.22Zm14.68-2.32h-3.66v-4.49h-3.13v11.75h3.13v-4.91h3.66v4.91h3.13V110.74h-3.13Zm6.07-5.53h3.13v-1.57h-3.13Zm0,12.79h3.13V110.74h-3.13Zm15.91,0h-3.27l-1-3.21a2,2,0,0,0-.68-1.07,2.35,2.35,0,0,0-1.34-.3h-.45v4.58h-3.07V110.74h4.67a6.27,6.27,0,0,1,3.47.76,2.57,2.57,0,0,1,1.12,2.3,2.85,2.85,0,0,1-.59,1.87,3,3,0,0,1-1.72,1,2.89,2.89,0,0,1,1.49,1.92Zm-3.64-8.14a1.3,1.3,0,0,0-.57-1.17,3.32,3.32,0,0,0-1.79-.37h-.77v3h1.09a2.54,2.54,0,0,0,1.53-.37,1.26,1.26,0,0,0,.51-1.1m-39.59,1.88a10.14,10.14,0,0,0-2.68-1.15l-.52-.16a2.16,2.16,0,0,1-.82-.47.9.9,0,0,1-.27-.64.92.92,0,0,1,.54-.83,3,3,0,0,1,1.48-.31,4.46,4.46,0,0,1,.63,0,5.19,5.19,0,0,1,.65.11,9.7,9.7,0,0,1,1.38.46l.23-2.43a7.2,7.2,0,0,0-.77-.19q-.37-.08-.78-.12a10.89,10.89,0,0,0-1.67-.11,5.93,5.93,0,0,0-3.62,1,3.23,3.23,0,0,0-1.27,2.72,2.93,2.93,0,0,0,.73,2A5.92,5.92,0,0,0,98,117.56l.63.23c1.15.4,1.72.84,1.72,1.33a1.06,1.06,0,0,1-.54.94,2.69,2.69,0,0,1-1.46.35,6.09,6.09,0,0,1-.72,0,6.36,6.36,0,0,1-.76-.14,9.66,9.66,0,0,1-1.6-.57L95,122.27a13.93,13.93,0,0,0,1.77.37c.34,0,.67.08,1,.1l-.12,1.32h3l.15-1.58a4.43,4.43,0,0,0,1.51-.73,3.62,3.62,0,0,0,1.29-3,3.31,3.31,0,0,0-.3-1.44,2.85,2.85,0,0,0-.9-1.1m-44.9,16.11a1.59,1.59,0,0,1,.39,1.1,1.66,1.66,0,0,1-.71,1.47,3.93,3.93,0,0,1-2.18.48H52.19v-7h2.87a3.28,3.28,0,0,1,1.92.46,1.76,1.76,0,0,1,.31,2.38,1.9,1.9,0,0,1-1,.57,1.91,1.91,0,0,1,1.11.57M54,131.2h.57a1.65,1.65,0,0,0,.89-.2.72.72,0,0,0,.29-.62.61.61,0,0,0-.28-.56,1.38,1.38,0,0,0-.81-.19H54Zm1.9,2.05a.69.69,0,0,0-.27-.6,1.31,1.31,0,0,0-.81-.21H54v1.65h.74a1.45,1.45,0,0,0,.86-.21.73.73,0,0,0,.3-.63m7.06-.82h2.84v-1.34H63v-1.41h3v-1.32H61.11v7h5V134H63Zm8.61-4.07H69.72v7h4.69V134H71.59Zm7.77,4.07H82.2v-1.34H79.36v-1.41h3v-1.32H77.49v7h5V134H79.36Zm12.82-2.33a3.71,3.71,0,0,1,.39,1.73,3.89,3.89,0,0,1-.41,1.85,3.23,3.23,0,0,1-1.24,1.25,3.07,3.07,0,0,1-1.06.35c-.21,0-.46.06-.76.08s-.63,0-1,0H85.89v-7h2.46a9.09,9.09,0,0,1,1.62.12,3.07,3.07,0,0,1,1,.38,3.2,3.2,0,0,1,1.16,1.24m-1.53,1.73a2.11,2.11,0,0,0-.56-1.56,2.2,2.2,0,0,0-1.61-.55h-.71V134h.81a2,2,0,0,0,1.53-.56,2.2,2.2,0,0,0,.54-1.59m12.6-.5-1.4-3H99.72l2.52,4.42v2.61h1.88v-2.63l2.55-4.4h-2Zm7.89,1.1H114v-1.34h-2.84v-1.41h3v-1.32h-4.88v7h5V134h-3.12Zm10.82-.79a5.69,5.69,0,0,0-1.6-.68l-.31-.1a1.32,1.32,0,0,1-.49-.28.53.53,0,0,1-.16-.39.56.56,0,0,1,.32-.49,1.8,1.8,0,0,1,.88-.19,2.34,2.34,0,0,1,.38,0l.39.07a6.14,6.14,0,0,1,.83.27l.13-1.45a3.69,3.69,0,0,0-.45-.11l-.47-.08a7.79,7.79,0,0,0-1-.06,3.57,3.57,0,0,0-2.17.57,2,2,0,0,0-.75,1.63,1.72,1.72,0,0,0,.43,1.22,3.5,3.5,0,0,0,1.43.84l.38.13c.68.24,1,.51,1,.8a.62.62,0,0,1-.33.56,1.55,1.55,0,0,1-.87.21l-.43,0-.45-.08a5.84,5.84,0,0,1-1-.34l-.16,1.56a8,8,0,0,0,1.06.23,7.65,7.65,0,0,0,1.06.07,3.51,3.51,0,0,0,2.23-.62,2.14,2.14,0,0,0,.77-1.77,2,2,0,0,0-.18-.86,1.68,1.68,0,0,0-.54-.66m-26.44,3.75h1.87v-7H95.52Zm0-7.65h1.87v-.94H95.52Zm30.42,0h1.87v-.94h-1.87Zm0,7.65h1.87v-7h-1.87ZM77.5,67.56v-1.8H75.7v1.8H73.9v-1.8H72.1v1.8H70.3v-1.8H68.5v1.8A21.5,21.5,0,0,0,89,89V80A12.5,12.5,0,0,1,77.5,67.56m32.2-1.8h1.8v1.8A21.5,21.5,0,0,1,91,89V80a12.5,12.5,0,0,0,11.5-12.46v-1.8h1.8v1.8h1.8v-1.8h1.8v1.8h1.8ZM79.5,57.5h-11a5.64,5.64,0,0,1,11,0m21,0a5.64,5.64,0,0,1,11,0Zm-21,6.78h-13a6.69,6.69,0,0,1,13,0m27.5-5.1a6.68,6.68,0,0,1,6.5,5.1h-13a6.7,6.7,0,0,1,6.5-5.1m-6.5,8.52h0V51.54l1.5-1.49v-1.5h-1.5v-6l-1.5-9-1.5,9v6h-3V42.49L96,41V39.5H94.5v-6l-1.5-9-1.5,9v6h-3v-6l-1.5-9-1.5,9v6H84V41l1.5,1.49v6.06h-3v-6l-1.5-9-1.5,9v6H78v1.5l1.5,1.49v16a10.5,10.5,0,0,0,21,.14m-2,1.51H92.86L95.7,64.3Zm-4-17.67L96,50.05l1.5,1.49v8.67a10.52,10.52,0,0,0-3-2.14Zm-1.65,7.82,2.84,4.92H90ZM88.5,42.49,90,41l1.5,1.49v6.06h-3Zm0,9L90,50.05l1.5,1.49v5.63a10.28,10.28,0,0,0-3,0Zm-1.35,7.82L90,64.28H84.31ZM82.5,51.54,84,50.05l1.5,1.49v6.53a10.52,10.52,0,0,0-3,2.14Zm-1,17.67L84.3,64.3l2.84,4.91Zm2.85,4.94,2.84-4.91L90,74.15Zm2.85-4.94L90,64.3l2.84,4.91ZM90,74.15l2.84-4.91,2.84,4.91Z"/></svg>